G04 #@! TF.GenerationSoftware,KiCad,Pcbnew,(5.1.8)-1*
G04 #@! TF.CreationDate,2021-02-12T13:34:04-08:00*
G04 #@! TF.ProjectId,MegaBlaster2,4d656761-426c-4617-9374-6572322e6b69,rev?*
G04 #@! TF.SameCoordinates,Original*
G04 #@! TF.FileFunction,Soldermask,Bot*
G04 #@! TF.FilePolarity,Negative*
%FSLAX46Y46*%
G04 Gerber Fmt 4.6, Leading zero omitted, Abs format (unit mm)*
G04 Created by KiCad (PCBNEW (5.1.8)-1) date 2021-02-12 13:34:04*
%MOMM*%
%LPD*%
G01*
G04 APERTURE LIST*
%ADD10C,3.000000*%
%ADD11C,1.600000*%
%ADD12R,1.346200X1.346200*%
%ADD13C,1.346200*%
%ADD14R,1.600000X1.600000*%
%ADD15C,4.000000*%
%ADD16C,3.200000*%
%ADD17C,1.100000*%
%ADD18R,1.000000X1.000000*%
%ADD19O,1.000000X1.000000*%
%ADD20O,1.300000X2.600000*%
%ADD21O,2.600000X1.300000*%
%ADD22C,1.200000*%
%ADD23C,1.800000*%
%ADD24C,1.700000*%
%ADD25O,1.600000X1.600000*%
G04 APERTURE END LIST*
D10*
X118070000Y-45045000D03*
X118070000Y-74045000D03*
X148570000Y-45045000D03*
X148470000Y-74045000D03*
D11*
X129460000Y-43845000D03*
X132050000Y-43845000D03*
X134590000Y-43845000D03*
X137130000Y-43845000D03*
D12*
X173482000Y-116916200D03*
D13*
X170942000Y-119456200D03*
X168402000Y-116916200D03*
D14*
X101600000Y-57150000D03*
D11*
X104100000Y-57150000D03*
X104100000Y-55150000D03*
X101600000Y-55150000D03*
D15*
X108850000Y-52290000D03*
X96850000Y-52290000D03*
D16*
X179070000Y-137160000D03*
X87630000Y-137160000D03*
X179070000Y-45720000D03*
X87630000Y-45720000D03*
D17*
X88370000Y-93510000D03*
X88370000Y-85510000D03*
D18*
X131200000Y-81550000D03*
D19*
X132470000Y-81550000D03*
X131200000Y-82820000D03*
X132470000Y-82820000D03*
X131200000Y-84090000D03*
X132470000Y-84090000D03*
X131200000Y-85360000D03*
X132470000Y-85360000D03*
X131200000Y-86630000D03*
X132470000Y-86630000D03*
D20*
X153110000Y-50330000D03*
X163110000Y-50330000D03*
X160610000Y-50330000D03*
X155610000Y-50330000D03*
D21*
X158110000Y-45330000D03*
D22*
X158110000Y-50330000D03*
X163110000Y-45330000D03*
X163110000Y-42830000D03*
X153110000Y-45330000D03*
X153110000Y-42830000D03*
D23*
X177595001Y-65612000D03*
X177595001Y-68112000D03*
X177595001Y-70612000D03*
X175095001Y-65612000D03*
X175095001Y-68112000D03*
X175095001Y-70612000D03*
D24*
X125410000Y-112280000D03*
X131910000Y-112280000D03*
X125410000Y-116780000D03*
X131910000Y-116780000D03*
X96055000Y-128595000D03*
X89555000Y-128595000D03*
X96055000Y-124095000D03*
X89555000Y-124095000D03*
X98445000Y-131080000D03*
X104945000Y-131080000D03*
X98445000Y-135580000D03*
X104945000Y-135580000D03*
X113835000Y-128595000D03*
X107335000Y-128595000D03*
X113835000Y-124095000D03*
X107335000Y-124095000D03*
X98445000Y-117110000D03*
X104945000Y-117110000D03*
X98445000Y-121610000D03*
X104945000Y-121610000D03*
X104950000Y-128590000D03*
X98450000Y-128590000D03*
X104950000Y-124090000D03*
X98450000Y-124090000D03*
D14*
X171825000Y-96325000D03*
D25*
X179445000Y-103945000D03*
X171825000Y-98865000D03*
X179445000Y-101405000D03*
X171825000Y-101405000D03*
X179445000Y-98865000D03*
X171825000Y-103945000D03*
X179445000Y-96325000D03*
D14*
X147900000Y-87750000D03*
D25*
X163140000Y-115690000D03*
X147900000Y-90290000D03*
X163140000Y-113150000D03*
X147900000Y-92830000D03*
X163140000Y-110610000D03*
X147900000Y-95370000D03*
X163140000Y-108070000D03*
X147900000Y-97910000D03*
X163140000Y-105530000D03*
X147900000Y-100450000D03*
X163140000Y-102990000D03*
X147900000Y-102990000D03*
X163140000Y-100450000D03*
X147900000Y-105530000D03*
X163140000Y-97910000D03*
X147900000Y-108070000D03*
X163140000Y-95370000D03*
X147900000Y-110610000D03*
X163140000Y-92830000D03*
X147900000Y-113150000D03*
X163140000Y-90290000D03*
X147900000Y-115690000D03*
X163140000Y-87750000D03*
D14*
X155500000Y-137000000D03*
D25*
X147880000Y-119220000D03*
X155500000Y-134460000D03*
X147880000Y-121760000D03*
X155500000Y-131920000D03*
X147880000Y-124300000D03*
X155500000Y-129380000D03*
X147880000Y-126840000D03*
X155500000Y-126840000D03*
X147880000Y-129380000D03*
X155500000Y-124300000D03*
X147880000Y-131920000D03*
X155500000Y-121760000D03*
X147880000Y-134460000D03*
X155500000Y-119220000D03*
X147880000Y-137000000D03*
M02*
