G04 #@! TF.GenerationSoftware,KiCad,Pcbnew,(5.1.8)-1*
G04 #@! TF.CreationDate,2021-01-07T15:05:30-08:00*
G04 #@! TF.ProjectId,MegaBlaster2,4d656761-426c-4617-9374-6572322e6b69,rev?*
G04 #@! TF.SameCoordinates,Original*
G04 #@! TF.FileFunction,Legend,Bot*
G04 #@! TF.FilePolarity,Positive*
%FSLAX46Y46*%
G04 Gerber Fmt 4.6, Leading zero omitted, Abs format (unit mm)*
G04 Created by KiCad (PCBNEW (5.1.8)-1) date 2021-01-07 15:05:30*
%MOMM*%
%LPD*%
G01*
G04 APERTURE LIST*
%ADD10C,0.150000*%
G04 APERTURE END LIST*
D10*
X133095785Y-119756119D02*
X133048166Y-119708500D01*
X132952928Y-119660880D01*
X132714833Y-119660880D01*
X132619595Y-119708500D01*
X132571976Y-119756119D01*
X132524357Y-119851357D01*
X132524357Y-119946595D01*
X132571976Y-120089452D01*
X133143404Y-120660880D01*
X132524357Y-120660880D01*
X131905309Y-119660880D02*
X131810071Y-119660880D01*
X131714833Y-119708500D01*
X131667214Y-119756119D01*
X131619595Y-119851357D01*
X131571976Y-120041833D01*
X131571976Y-120279928D01*
X131619595Y-120470404D01*
X131667214Y-120565642D01*
X131714833Y-120613261D01*
X131810071Y-120660880D01*
X131905309Y-120660880D01*
X132000547Y-120613261D01*
X132048166Y-120565642D01*
X132095785Y-120470404D01*
X132143404Y-120279928D01*
X132143404Y-120041833D01*
X132095785Y-119851357D01*
X132048166Y-119756119D01*
X132000547Y-119708500D01*
X131905309Y-119660880D01*
X131191023Y-119756119D02*
X131143404Y-119708500D01*
X131048166Y-119660880D01*
X130810071Y-119660880D01*
X130714833Y-119708500D01*
X130667214Y-119756119D01*
X130619595Y-119851357D01*
X130619595Y-119946595D01*
X130667214Y-120089452D01*
X131238642Y-120660880D01*
X130619595Y-120660880D01*
X129667214Y-120660880D02*
X130238642Y-120660880D01*
X129952928Y-120660880D02*
X129952928Y-119660880D01*
X130048166Y-119803738D01*
X130143404Y-119898976D01*
X130238642Y-119946595D01*
X137024357Y-122025166D02*
X136548166Y-122025166D01*
X137119595Y-122310880D02*
X136786261Y-121310880D01*
X136452928Y-122310880D01*
X136119595Y-122310880D02*
X136119595Y-121644214D01*
X136119595Y-121310880D02*
X136167214Y-121358500D01*
X136119595Y-121406119D01*
X136071976Y-121358500D01*
X136119595Y-121310880D01*
X136119595Y-121406119D01*
X135214833Y-122310880D02*
X135214833Y-121310880D01*
X135214833Y-122263261D02*
X135310071Y-122310880D01*
X135500547Y-122310880D01*
X135595785Y-122263261D01*
X135643404Y-122215642D01*
X135691023Y-122120404D01*
X135691023Y-121834690D01*
X135643404Y-121739452D01*
X135595785Y-121691833D01*
X135500547Y-121644214D01*
X135310071Y-121644214D01*
X135214833Y-121691833D01*
X134310071Y-122310880D02*
X134310071Y-121787071D01*
X134357690Y-121691833D01*
X134452928Y-121644214D01*
X134643404Y-121644214D01*
X134738642Y-121691833D01*
X134310071Y-122263261D02*
X134405309Y-122310880D01*
X134643404Y-122310880D01*
X134738642Y-122263261D01*
X134786261Y-122168023D01*
X134786261Y-122072785D01*
X134738642Y-121977547D01*
X134643404Y-121929928D01*
X134405309Y-121929928D01*
X134310071Y-121882309D01*
X133833880Y-121644214D02*
X133833880Y-122310880D01*
X133833880Y-121739452D02*
X133786261Y-121691833D01*
X133691023Y-121644214D01*
X133548166Y-121644214D01*
X133452928Y-121691833D01*
X133405309Y-121787071D01*
X133405309Y-122310880D01*
X131691023Y-122310880D02*
X132167214Y-122310880D01*
X132167214Y-121310880D01*
X130929119Y-122310880D02*
X130929119Y-121787071D01*
X130976738Y-121691833D01*
X131071976Y-121644214D01*
X131262452Y-121644214D01*
X131357690Y-121691833D01*
X130929119Y-122263261D02*
X131024357Y-122310880D01*
X131262452Y-122310880D01*
X131357690Y-122263261D01*
X131405309Y-122168023D01*
X131405309Y-122072785D01*
X131357690Y-121977547D01*
X131262452Y-121929928D01*
X131024357Y-121929928D01*
X130929119Y-121882309D01*
X130548166Y-121644214D02*
X130357690Y-122310880D01*
X130167214Y-121834690D01*
X129976738Y-122310880D01*
X129786261Y-121644214D01*
X129405309Y-122310880D02*
X129405309Y-121644214D01*
X129405309Y-121834690D02*
X129357690Y-121739452D01*
X129310071Y-121691833D01*
X129214833Y-121644214D01*
X129119595Y-121644214D01*
X128405309Y-122263261D02*
X128500547Y-122310880D01*
X128691023Y-122310880D01*
X128786261Y-122263261D01*
X128833880Y-122168023D01*
X128833880Y-121787071D01*
X128786261Y-121691833D01*
X128691023Y-121644214D01*
X128500547Y-121644214D01*
X128405309Y-121691833D01*
X128357690Y-121787071D01*
X128357690Y-121882309D01*
X128833880Y-121977547D01*
X127929119Y-121644214D02*
X127929119Y-122310880D01*
X127929119Y-121739452D02*
X127881500Y-121691833D01*
X127786261Y-121644214D01*
X127643404Y-121644214D01*
X127548166Y-121691833D01*
X127500547Y-121787071D01*
X127500547Y-122310880D01*
X126595785Y-122263261D02*
X126691023Y-122310880D01*
X126881500Y-122310880D01*
X126976738Y-122263261D01*
X127024357Y-122215642D01*
X127071976Y-122120404D01*
X127071976Y-121834690D01*
X127024357Y-121739452D01*
X126976738Y-121691833D01*
X126881500Y-121644214D01*
X126691023Y-121644214D01*
X126595785Y-121691833D01*
X125786261Y-122263261D02*
X125881500Y-122310880D01*
X126071976Y-122310880D01*
X126167214Y-122263261D01*
X126214833Y-122168023D01*
X126214833Y-121787071D01*
X126167214Y-121691833D01*
X126071976Y-121644214D01*
X125881500Y-121644214D01*
X125786261Y-121691833D01*
X125738642Y-121787071D01*
X125738642Y-121882309D01*
X126214833Y-121977547D01*
X140167214Y-123294214D02*
X139976738Y-123960880D01*
X139786261Y-123484690D01*
X139595785Y-123960880D01*
X139405309Y-123294214D01*
X139119595Y-123294214D02*
X138929119Y-123960880D01*
X138738642Y-123484690D01*
X138548166Y-123960880D01*
X138357690Y-123294214D01*
X138071976Y-123294214D02*
X137881500Y-123960880D01*
X137691023Y-123484690D01*
X137500547Y-123960880D01*
X137310071Y-123294214D01*
X136929119Y-123865642D02*
X136881500Y-123913261D01*
X136929119Y-123960880D01*
X136976738Y-123913261D01*
X136929119Y-123865642D01*
X136929119Y-123960880D01*
X136024357Y-123960880D02*
X136024357Y-123437071D01*
X136071976Y-123341833D01*
X136167214Y-123294214D01*
X136357690Y-123294214D01*
X136452928Y-123341833D01*
X136024357Y-123913261D02*
X136119595Y-123960880D01*
X136357690Y-123960880D01*
X136452928Y-123913261D01*
X136500547Y-123818023D01*
X136500547Y-123722785D01*
X136452928Y-123627547D01*
X136357690Y-123579928D01*
X136119595Y-123579928D01*
X136024357Y-123532309D01*
X135548166Y-123960880D02*
X135548166Y-123294214D01*
X135548166Y-122960880D02*
X135595785Y-123008500D01*
X135548166Y-123056119D01*
X135500547Y-123008500D01*
X135548166Y-122960880D01*
X135548166Y-123056119D01*
X134643404Y-123960880D02*
X134643404Y-122960880D01*
X134643404Y-123913261D02*
X134738642Y-123960880D01*
X134929119Y-123960880D01*
X135024357Y-123913261D01*
X135071976Y-123865642D01*
X135119595Y-123770404D01*
X135119595Y-123484690D01*
X135071976Y-123389452D01*
X135024357Y-123341833D01*
X134929119Y-123294214D01*
X134738642Y-123294214D01*
X134643404Y-123341833D01*
X133738642Y-123960880D02*
X133738642Y-123437071D01*
X133786261Y-123341833D01*
X133881500Y-123294214D01*
X134071976Y-123294214D01*
X134167214Y-123341833D01*
X133738642Y-123913261D02*
X133833880Y-123960880D01*
X134071976Y-123960880D01*
X134167214Y-123913261D01*
X134214833Y-123818023D01*
X134214833Y-123722785D01*
X134167214Y-123627547D01*
X134071976Y-123579928D01*
X133833880Y-123579928D01*
X133738642Y-123532309D01*
X133262452Y-123294214D02*
X133262452Y-123960880D01*
X133262452Y-123389452D02*
X133214833Y-123341833D01*
X133119595Y-123294214D01*
X132976738Y-123294214D01*
X132881500Y-123341833D01*
X132833880Y-123437071D01*
X132833880Y-123960880D01*
X132214833Y-123960880D02*
X132310071Y-123913261D01*
X132357690Y-123818023D01*
X132357690Y-122960880D01*
X131405309Y-123960880D02*
X131405309Y-123437071D01*
X131452928Y-123341833D01*
X131548166Y-123294214D01*
X131738642Y-123294214D01*
X131833880Y-123341833D01*
X131405309Y-123913261D02*
X131500547Y-123960880D01*
X131738642Y-123960880D01*
X131833880Y-123913261D01*
X131881500Y-123818023D01*
X131881500Y-123722785D01*
X131833880Y-123627547D01*
X131738642Y-123579928D01*
X131500547Y-123579928D01*
X131405309Y-123532309D01*
X131024357Y-123294214D02*
X130833880Y-123960880D01*
X130643404Y-123484690D01*
X130452928Y-123960880D01*
X130262452Y-123294214D01*
X129881500Y-123960880D02*
X129881500Y-123294214D01*
X129881500Y-123484690D02*
X129833880Y-123389452D01*
X129786261Y-123341833D01*
X129691023Y-123294214D01*
X129595785Y-123294214D01*
X128881500Y-123913261D02*
X128976738Y-123960880D01*
X129167214Y-123960880D01*
X129262452Y-123913261D01*
X129310071Y-123818023D01*
X129310071Y-123437071D01*
X129262452Y-123341833D01*
X129167214Y-123294214D01*
X128976738Y-123294214D01*
X128881500Y-123341833D01*
X128833880Y-123437071D01*
X128833880Y-123532309D01*
X129310071Y-123627547D01*
X128405309Y-123294214D02*
X128405309Y-123960880D01*
X128405309Y-123389452D02*
X128357690Y-123341833D01*
X128262452Y-123294214D01*
X128119595Y-123294214D01*
X128024357Y-123341833D01*
X127976738Y-123437071D01*
X127976738Y-123960880D01*
X127071976Y-123913261D02*
X127167214Y-123960880D01*
X127357690Y-123960880D01*
X127452928Y-123913261D01*
X127500547Y-123865642D01*
X127548166Y-123770404D01*
X127548166Y-123484690D01*
X127500547Y-123389452D01*
X127452928Y-123341833D01*
X127357690Y-123294214D01*
X127167214Y-123294214D01*
X127071976Y-123341833D01*
X126262452Y-123913261D02*
X126357690Y-123960880D01*
X126548166Y-123960880D01*
X126643404Y-123913261D01*
X126691023Y-123818023D01*
X126691023Y-123437071D01*
X126643404Y-123341833D01*
X126548166Y-123294214D01*
X126357690Y-123294214D01*
X126262452Y-123341833D01*
X126214833Y-123437071D01*
X126214833Y-123532309D01*
X126691023Y-123627547D01*
X125786261Y-123865642D02*
X125738642Y-123913261D01*
X125786261Y-123960880D01*
X125833880Y-123913261D01*
X125786261Y-123865642D01*
X125786261Y-123960880D01*
X124881500Y-123913261D02*
X124976738Y-123960880D01*
X125167214Y-123960880D01*
X125262452Y-123913261D01*
X125310071Y-123865642D01*
X125357690Y-123770404D01*
X125357690Y-123484690D01*
X125310071Y-123389452D01*
X125262452Y-123341833D01*
X125167214Y-123294214D01*
X124976738Y-123294214D01*
X124881500Y-123341833D01*
X124310071Y-123960880D02*
X124405309Y-123913261D01*
X124452928Y-123865642D01*
X124500547Y-123770404D01*
X124500547Y-123484690D01*
X124452928Y-123389452D01*
X124405309Y-123341833D01*
X124310071Y-123294214D01*
X124167214Y-123294214D01*
X124071976Y-123341833D01*
X124024357Y-123389452D01*
X123976738Y-123484690D01*
X123976738Y-123770404D01*
X124024357Y-123865642D01*
X124071976Y-123913261D01*
X124167214Y-123960880D01*
X124310071Y-123960880D01*
X123548166Y-123960880D02*
X123548166Y-123294214D01*
X123548166Y-123389452D02*
X123500547Y-123341833D01*
X123405309Y-123294214D01*
X123262452Y-123294214D01*
X123167214Y-123341833D01*
X123119595Y-123437071D01*
X123119595Y-123960880D01*
X123119595Y-123437071D02*
X123071976Y-123341833D01*
X122976738Y-123294214D01*
X122833880Y-123294214D01*
X122738642Y-123341833D01*
X122691023Y-123437071D01*
X122691023Y-123960880D01*
X145143404Y-126975166D02*
X144667214Y-126975166D01*
X145238642Y-127260880D02*
X144905309Y-126260880D01*
X144571976Y-127260880D01*
X144238642Y-126594214D02*
X144238642Y-127260880D01*
X144238642Y-126689452D02*
X144191023Y-126641833D01*
X144095785Y-126594214D01*
X143952928Y-126594214D01*
X143857690Y-126641833D01*
X143810071Y-126737071D01*
X143810071Y-127260880D01*
X142905309Y-127260880D02*
X142905309Y-126737071D01*
X142952928Y-126641833D01*
X143048166Y-126594214D01*
X143238642Y-126594214D01*
X143333880Y-126641833D01*
X142905309Y-127213261D02*
X143000547Y-127260880D01*
X143238642Y-127260880D01*
X143333880Y-127213261D01*
X143381500Y-127118023D01*
X143381500Y-127022785D01*
X143333880Y-126927547D01*
X143238642Y-126879928D01*
X143000547Y-126879928D01*
X142905309Y-126832309D01*
X142286261Y-127260880D02*
X142381500Y-127213261D01*
X142429119Y-127118023D01*
X142429119Y-126260880D01*
X141762452Y-127260880D02*
X141857690Y-127213261D01*
X141905309Y-127165642D01*
X141952928Y-127070404D01*
X141952928Y-126784690D01*
X141905309Y-126689452D01*
X141857690Y-126641833D01*
X141762452Y-126594214D01*
X141619595Y-126594214D01*
X141524357Y-126641833D01*
X141476738Y-126689452D01*
X141429119Y-126784690D01*
X141429119Y-127070404D01*
X141476738Y-127165642D01*
X141524357Y-127213261D01*
X141619595Y-127260880D01*
X141762452Y-127260880D01*
X140571976Y-126594214D02*
X140571976Y-127403738D01*
X140619595Y-127498976D01*
X140667214Y-127546595D01*
X140762452Y-127594214D01*
X140905309Y-127594214D01*
X141000547Y-127546595D01*
X140571976Y-127213261D02*
X140667214Y-127260880D01*
X140857690Y-127260880D01*
X140952928Y-127213261D01*
X141000547Y-127165642D01*
X141048166Y-127070404D01*
X141048166Y-126784690D01*
X141000547Y-126689452D01*
X140952928Y-126641833D01*
X140857690Y-126594214D01*
X140667214Y-126594214D01*
X140571976Y-126641833D01*
X139381500Y-127213261D02*
X139286261Y-127260880D01*
X139095785Y-127260880D01*
X139000547Y-127213261D01*
X138952928Y-127118023D01*
X138952928Y-127070404D01*
X139000547Y-126975166D01*
X139095785Y-126927547D01*
X139238642Y-126927547D01*
X139333880Y-126879928D01*
X139381500Y-126784690D01*
X139381500Y-126737071D01*
X139333880Y-126641833D01*
X139238642Y-126594214D01*
X139095785Y-126594214D01*
X139000547Y-126641833D01*
X138667214Y-126594214D02*
X138286261Y-126594214D01*
X138524357Y-126260880D02*
X138524357Y-127118023D01*
X138476738Y-127213261D01*
X138381500Y-127260880D01*
X138286261Y-127260880D01*
X137524357Y-127260880D02*
X137524357Y-126737071D01*
X137571976Y-126641833D01*
X137667214Y-126594214D01*
X137857690Y-126594214D01*
X137952928Y-126641833D01*
X137524357Y-127213261D02*
X137619595Y-127260880D01*
X137857690Y-127260880D01*
X137952928Y-127213261D01*
X138000547Y-127118023D01*
X138000547Y-127022785D01*
X137952928Y-126927547D01*
X137857690Y-126879928D01*
X137619595Y-126879928D01*
X137524357Y-126832309D01*
X136619595Y-126594214D02*
X136619595Y-127403738D01*
X136667214Y-127498976D01*
X136714833Y-127546595D01*
X136810071Y-127594214D01*
X136952928Y-127594214D01*
X137048166Y-127546595D01*
X136619595Y-127213261D02*
X136714833Y-127260880D01*
X136905309Y-127260880D01*
X137000547Y-127213261D01*
X137048166Y-127165642D01*
X137095785Y-127070404D01*
X137095785Y-126784690D01*
X137048166Y-126689452D01*
X137000547Y-126641833D01*
X136905309Y-126594214D01*
X136714833Y-126594214D01*
X136619595Y-126641833D01*
X135762452Y-127213261D02*
X135857690Y-127260880D01*
X136048166Y-127260880D01*
X136143404Y-127213261D01*
X136191023Y-127118023D01*
X136191023Y-126737071D01*
X136143404Y-126641833D01*
X136048166Y-126594214D01*
X135857690Y-126594214D01*
X135762452Y-126641833D01*
X135714833Y-126737071D01*
X135714833Y-126832309D01*
X136191023Y-126927547D01*
X134571976Y-127213261D02*
X134476738Y-127260880D01*
X134286261Y-127260880D01*
X134191023Y-127213261D01*
X134143404Y-127118023D01*
X134143404Y-127070404D01*
X134191023Y-126975166D01*
X134286261Y-126927547D01*
X134429119Y-126927547D01*
X134524357Y-126879928D01*
X134571976Y-126784690D01*
X134571976Y-126737071D01*
X134524357Y-126641833D01*
X134429119Y-126594214D01*
X134286261Y-126594214D01*
X134191023Y-126641833D01*
X133286261Y-127213261D02*
X133381500Y-127260880D01*
X133571976Y-127260880D01*
X133667214Y-127213261D01*
X133714833Y-127165642D01*
X133762452Y-127070404D01*
X133762452Y-126784690D01*
X133714833Y-126689452D01*
X133667214Y-126641833D01*
X133571976Y-126594214D01*
X133381500Y-126594214D01*
X133286261Y-126641833D01*
X132857690Y-127260880D02*
X132857690Y-126260880D01*
X132429119Y-127260880D02*
X132429119Y-126737071D01*
X132476738Y-126641833D01*
X132571976Y-126594214D01*
X132714833Y-126594214D01*
X132810071Y-126641833D01*
X132857690Y-126689452D01*
X131571976Y-127213261D02*
X131667214Y-127260880D01*
X131857690Y-127260880D01*
X131952928Y-127213261D01*
X132000547Y-127118023D01*
X132000547Y-126737071D01*
X131952928Y-126641833D01*
X131857690Y-126594214D01*
X131667214Y-126594214D01*
X131571976Y-126641833D01*
X131524357Y-126737071D01*
X131524357Y-126832309D01*
X132000547Y-126927547D01*
X131095785Y-127260880D02*
X131095785Y-126594214D01*
X131095785Y-126689452D02*
X131048166Y-126641833D01*
X130952928Y-126594214D01*
X130810071Y-126594214D01*
X130714833Y-126641833D01*
X130667214Y-126737071D01*
X130667214Y-127260880D01*
X130667214Y-126737071D02*
X130619595Y-126641833D01*
X130524357Y-126594214D01*
X130381500Y-126594214D01*
X130286261Y-126641833D01*
X130238642Y-126737071D01*
X130238642Y-127260880D01*
X129333880Y-127260880D02*
X129333880Y-126737071D01*
X129381500Y-126641833D01*
X129476738Y-126594214D01*
X129667214Y-126594214D01*
X129762452Y-126641833D01*
X129333880Y-127213261D02*
X129429119Y-127260880D01*
X129667214Y-127260880D01*
X129762452Y-127213261D01*
X129810071Y-127118023D01*
X129810071Y-127022785D01*
X129762452Y-126927547D01*
X129667214Y-126879928D01*
X129429119Y-126879928D01*
X129333880Y-126832309D01*
X129000547Y-126594214D02*
X128619595Y-126594214D01*
X128857690Y-126260880D02*
X128857690Y-127118023D01*
X128810071Y-127213261D01*
X128714833Y-127260880D01*
X128619595Y-127260880D01*
X128286261Y-127260880D02*
X128286261Y-126594214D01*
X128286261Y-126260880D02*
X128333880Y-126308500D01*
X128286261Y-126356119D01*
X128238642Y-126308500D01*
X128286261Y-126260880D01*
X128286261Y-126356119D01*
X127381500Y-127213261D02*
X127476738Y-127260880D01*
X127667214Y-127260880D01*
X127762452Y-127213261D01*
X127810071Y-127165642D01*
X127857690Y-127070404D01*
X127857690Y-126784690D01*
X127810071Y-126689452D01*
X127762452Y-126641833D01*
X127667214Y-126594214D01*
X127476738Y-126594214D01*
X127381500Y-126641833D01*
X125762452Y-127213261D02*
X125857690Y-127260880D01*
X126048166Y-127260880D01*
X126143404Y-127213261D01*
X126191023Y-127165642D01*
X126238642Y-127070404D01*
X126238642Y-126784690D01*
X126191023Y-126689452D01*
X126143404Y-126641833D01*
X126048166Y-126594214D01*
X125857690Y-126594214D01*
X125762452Y-126641833D01*
X125191023Y-127260880D02*
X125286261Y-127213261D01*
X125333880Y-127165642D01*
X125381500Y-127070404D01*
X125381500Y-126784690D01*
X125333880Y-126689452D01*
X125286261Y-126641833D01*
X125191023Y-126594214D01*
X125048166Y-126594214D01*
X124952928Y-126641833D01*
X124905309Y-126689452D01*
X124857690Y-126784690D01*
X124857690Y-127070404D01*
X124905309Y-127165642D01*
X124952928Y-127213261D01*
X125048166Y-127260880D01*
X125191023Y-127260880D01*
X124000547Y-126594214D02*
X124000547Y-127260880D01*
X124429119Y-126594214D02*
X124429119Y-127118023D01*
X124381500Y-127213261D01*
X124286261Y-127260880D01*
X124143404Y-127260880D01*
X124048166Y-127213261D01*
X124000547Y-127165642D01*
X123524357Y-127260880D02*
X123524357Y-126594214D01*
X123524357Y-126784690D02*
X123476738Y-126689452D01*
X123429119Y-126641833D01*
X123333880Y-126594214D01*
X123238642Y-126594214D01*
X123048166Y-126594214D02*
X122667214Y-126594214D01*
X122905309Y-126260880D02*
X122905309Y-127118023D01*
X122857690Y-127213261D01*
X122762452Y-127260880D01*
X122667214Y-127260880D01*
X121952928Y-127213261D02*
X122048166Y-127260880D01*
X122238642Y-127260880D01*
X122333880Y-127213261D01*
X122381500Y-127118023D01*
X122381500Y-126737071D01*
X122333880Y-126641833D01*
X122238642Y-126594214D01*
X122048166Y-126594214D01*
X121952928Y-126641833D01*
X121905309Y-126737071D01*
X121905309Y-126832309D01*
X122381500Y-126927547D01*
X121524357Y-127213261D02*
X121429119Y-127260880D01*
X121238642Y-127260880D01*
X121143404Y-127213261D01*
X121095785Y-127118023D01*
X121095785Y-127070404D01*
X121143404Y-126975166D01*
X121238642Y-126927547D01*
X121381500Y-126927547D01*
X121476738Y-126879928D01*
X121524357Y-126784690D01*
X121524357Y-126737071D01*
X121476738Y-126641833D01*
X121381500Y-126594214D01*
X121238642Y-126594214D01*
X121143404Y-126641833D01*
X120762452Y-126594214D02*
X120524357Y-127260880D01*
X120286261Y-126594214D02*
X120524357Y-127260880D01*
X120619595Y-127498976D01*
X120667214Y-127546595D01*
X120762452Y-127594214D01*
X119000547Y-127260880D02*
X119095785Y-127213261D01*
X119143404Y-127165642D01*
X119191023Y-127070404D01*
X119191023Y-126784690D01*
X119143404Y-126689452D01*
X119095785Y-126641833D01*
X119000547Y-126594214D01*
X118857690Y-126594214D01*
X118762452Y-126641833D01*
X118714833Y-126689452D01*
X118667214Y-126784690D01*
X118667214Y-127070404D01*
X118714833Y-127165642D01*
X118762452Y-127213261D01*
X118857690Y-127260880D01*
X119000547Y-127260880D01*
X118381500Y-126594214D02*
X118000547Y-126594214D01*
X118238642Y-127260880D02*
X118238642Y-126403738D01*
X118191023Y-126308500D01*
X118095785Y-126260880D01*
X118000547Y-126260880D01*
X117667214Y-127165642D02*
X117619595Y-127213261D01*
X117667214Y-127260880D01*
X117714833Y-127213261D01*
X117667214Y-127165642D01*
X117667214Y-127260880D01*
X117667214Y-126641833D02*
X117619595Y-126689452D01*
X117667214Y-126737071D01*
X117714833Y-126689452D01*
X117667214Y-126641833D01*
X117667214Y-126737071D01*
X136905309Y-128910880D02*
X136905309Y-127910880D01*
X136333880Y-128910880D02*
X136762452Y-128339452D01*
X136333880Y-127910880D02*
X136905309Y-128482309D01*
X135905309Y-127910880D02*
X135905309Y-128720404D01*
X135857690Y-128815642D01*
X135810071Y-128863261D01*
X135714833Y-128910880D01*
X135524357Y-128910880D01*
X135429119Y-128863261D01*
X135381500Y-128815642D01*
X135333880Y-128720404D01*
X135333880Y-127910880D01*
X134857690Y-128910880D02*
X134857690Y-127910880D01*
X134286261Y-128910880D01*
X134286261Y-127910880D01*
X133619595Y-127910880D02*
X133429119Y-127910880D01*
X133333880Y-127958500D01*
X133238642Y-128053738D01*
X133191023Y-128244214D01*
X133191023Y-128577547D01*
X133238642Y-128768023D01*
X133333880Y-128863261D01*
X133429119Y-128910880D01*
X133619595Y-128910880D01*
X133714833Y-128863261D01*
X133810071Y-128768023D01*
X133857690Y-128577547D01*
X133857690Y-128244214D01*
X133810071Y-128053738D01*
X133714833Y-127958500D01*
X133619595Y-127910880D01*
X132762452Y-128910880D02*
X132762452Y-127910880D01*
X131714833Y-128815642D02*
X131762452Y-128863261D01*
X131905309Y-128910880D01*
X132000547Y-128910880D01*
X132143404Y-128863261D01*
X132238642Y-128768023D01*
X132286261Y-128672785D01*
X132333880Y-128482309D01*
X132333880Y-128339452D01*
X132286261Y-128148976D01*
X132238642Y-128053738D01*
X132143404Y-127958500D01*
X132000547Y-127910880D01*
X131905309Y-127910880D01*
X131762452Y-127958500D01*
X131714833Y-128006119D01*
X131286261Y-128910880D02*
X131286261Y-127910880D01*
X131286261Y-128387071D02*
X130714833Y-128387071D01*
X130714833Y-128910880D02*
X130714833Y-127910880D01*
X130238642Y-128910880D02*
X130238642Y-127910880D01*
X128524357Y-128910880D02*
X129000547Y-128910880D01*
X129000547Y-127910880D01*
X128238642Y-128625166D02*
X127762452Y-128625166D01*
X128333880Y-128910880D02*
X128000547Y-127910880D01*
X127667214Y-128910880D01*
X127000547Y-128387071D02*
X126857690Y-128434690D01*
X126810071Y-128482309D01*
X126762452Y-128577547D01*
X126762452Y-128720404D01*
X126810071Y-128815642D01*
X126857690Y-128863261D01*
X126952928Y-128910880D01*
X127333880Y-128910880D01*
X127333880Y-127910880D01*
X127000547Y-127910880D01*
X126905309Y-127958500D01*
X126857690Y-128006119D01*
X126810071Y-128101357D01*
X126810071Y-128196595D01*
X126857690Y-128291833D01*
X126905309Y-128339452D01*
X127000547Y-128387071D01*
X127333880Y-128387071D01*
X126381500Y-128863261D02*
X126238642Y-128910880D01*
X126000547Y-128910880D01*
X125905309Y-128863261D01*
X125857690Y-128815642D01*
X125810071Y-128720404D01*
X125810071Y-128625166D01*
X125857690Y-128529928D01*
X125905309Y-128482309D01*
X126000547Y-128434690D01*
X126191023Y-128387071D01*
X126286261Y-128339452D01*
X126333880Y-128291833D01*
X126381500Y-128196595D01*
X126381500Y-128101357D01*
X126333880Y-128006119D01*
X126286261Y-127958500D01*
X126191023Y-127910880D01*
X125952928Y-127910880D01*
X125810071Y-127958500D01*
X137333880Y-130560880D02*
X137333880Y-129560880D01*
X137238642Y-130179928D02*
X136952928Y-130560880D01*
X136952928Y-129894214D02*
X137333880Y-130275166D01*
X136095785Y-129894214D02*
X136095785Y-130560880D01*
X136524357Y-129894214D02*
X136524357Y-130418023D01*
X136476738Y-130513261D01*
X136381500Y-130560880D01*
X136238642Y-130560880D01*
X136143404Y-130513261D01*
X136095785Y-130465642D01*
X135619595Y-129894214D02*
X135619595Y-130560880D01*
X135619595Y-129989452D02*
X135571976Y-129941833D01*
X135476738Y-129894214D01*
X135333880Y-129894214D01*
X135238642Y-129941833D01*
X135191023Y-130037071D01*
X135191023Y-130560880D01*
X134571976Y-130560880D02*
X134667214Y-130513261D01*
X134714833Y-130465642D01*
X134762452Y-130370404D01*
X134762452Y-130084690D01*
X134714833Y-129989452D01*
X134667214Y-129941833D01*
X134571976Y-129894214D01*
X134429119Y-129894214D01*
X134333880Y-129941833D01*
X134286261Y-129989452D01*
X134238642Y-130084690D01*
X134238642Y-130370404D01*
X134286261Y-130465642D01*
X134333880Y-130513261D01*
X134429119Y-130560880D01*
X134571976Y-130560880D01*
X133810071Y-130560880D02*
X133810071Y-129894214D01*
X133810071Y-129560880D02*
X133857690Y-129608500D01*
X133810071Y-129656119D01*
X133762452Y-129608500D01*
X133810071Y-129560880D01*
X133810071Y-129656119D01*
X132905309Y-130513261D02*
X133000547Y-130560880D01*
X133191023Y-130560880D01*
X133286261Y-130513261D01*
X133333880Y-130465642D01*
X133381500Y-130370404D01*
X133381500Y-130084690D01*
X133333880Y-129989452D01*
X133286261Y-129941833D01*
X133191023Y-129894214D01*
X133000547Y-129894214D01*
X132905309Y-129941833D01*
X132476738Y-130560880D02*
X132476738Y-129560880D01*
X132048166Y-130560880D02*
X132048166Y-130037071D01*
X132095785Y-129941833D01*
X132191023Y-129894214D01*
X132333880Y-129894214D01*
X132429119Y-129941833D01*
X132476738Y-129989452D01*
X131571976Y-130560880D02*
X131571976Y-129894214D01*
X131571976Y-129560880D02*
X131619595Y-129608500D01*
X131571976Y-129656119D01*
X131524357Y-129608500D01*
X131571976Y-129560880D01*
X131571976Y-129656119D01*
X130952928Y-130560880D02*
X131048166Y-130513261D01*
X131095785Y-130418023D01*
X131095785Y-129560880D01*
X130143404Y-130560880D02*
X130143404Y-130037071D01*
X130191023Y-129941833D01*
X130286261Y-129894214D01*
X130476738Y-129894214D01*
X130571976Y-129941833D01*
X130143404Y-130513261D02*
X130238642Y-130560880D01*
X130476738Y-130560880D01*
X130571976Y-130513261D01*
X130619595Y-130418023D01*
X130619595Y-130322785D01*
X130571976Y-130227547D01*
X130476738Y-130179928D01*
X130238642Y-130179928D01*
X130143404Y-130132309D01*
X129667214Y-130560880D02*
X129667214Y-129560880D01*
X129667214Y-129941833D02*
X129571976Y-129894214D01*
X129381500Y-129894214D01*
X129286261Y-129941833D01*
X129238642Y-129989452D01*
X129191023Y-130084690D01*
X129191023Y-130370404D01*
X129238642Y-130465642D01*
X129286261Y-130513261D01*
X129381500Y-130560880D01*
X129571976Y-130560880D01*
X129667214Y-130513261D01*
X128810071Y-130513261D02*
X128714833Y-130560880D01*
X128524357Y-130560880D01*
X128429119Y-130513261D01*
X128381500Y-130418023D01*
X128381500Y-130370404D01*
X128429119Y-130275166D01*
X128524357Y-130227547D01*
X128667214Y-130227547D01*
X128762452Y-130179928D01*
X128810071Y-130084690D01*
X128810071Y-130037071D01*
X128762452Y-129941833D01*
X128667214Y-129894214D01*
X128524357Y-129894214D01*
X128429119Y-129941833D01*
X127952928Y-130465642D02*
X127905309Y-130513261D01*
X127952928Y-130560880D01*
X128000547Y-130513261D01*
X127952928Y-130465642D01*
X127952928Y-130560880D01*
X127048166Y-130560880D02*
X127048166Y-129560880D01*
X127048166Y-130513261D02*
X127143404Y-130560880D01*
X127333880Y-130560880D01*
X127429119Y-130513261D01*
X127476738Y-130465642D01*
X127524357Y-130370404D01*
X127524357Y-130084690D01*
X127476738Y-129989452D01*
X127429119Y-129941833D01*
X127333880Y-129894214D01*
X127143404Y-129894214D01*
X127048166Y-129941833D01*
X126191023Y-130513261D02*
X126286261Y-130560880D01*
X126476738Y-130560880D01*
X126571976Y-130513261D01*
X126619595Y-130418023D01*
X126619595Y-130037071D01*
X126571976Y-129941833D01*
X126476738Y-129894214D01*
X126286261Y-129894214D01*
X126191023Y-129941833D01*
X126143404Y-130037071D01*
X126143404Y-130132309D01*
X126619595Y-130227547D01*
X125810071Y-129894214D02*
X125571976Y-130560880D01*
X125333880Y-129894214D01*
M02*
