M48
; DRILL file {KiCad (5.1.8)-1} date 01/07/21 15:01:19
; FORMAT={-:-/ absolute / inch / decimal}
; #@! TF.CreationDate,2021-01-07T15:01:19-08:00
; #@! TF.GenerationSoftware,Kicad,Pcbnew,(5.1.8)-1
; #@! TF.FileFunction,Plated,1,4,PTH
FMAT,2
INCH
T1C0.0157
T2C0.0256
T3C0.0315
T4C0.0330
T5C0.0374
T6C0.0394
T7C0.0906
%
G90
G05
T1
X3.38Y-3.16
X3.38Y-5.26
X3.42Y-1.92
X3.42Y-2.92
X3.44Y-2.25
X3.46Y-4.15
X3.47Y-2.5275
X3.55Y-1.85
X3.55Y-5.31
X3.56Y-2.1
X3.56Y-2.99
X3.56Y-3.02
X3.58Y-1.74
X3.58Y-4.65
X3.59Y-2.99
X3.59Y-3.02
X3.61Y-5.48
X3.62Y-2.99
X3.62Y-3.02
X3.6275Y-4.324
X3.65Y-2.99
X3.65Y-3.02
X3.66Y-4.3469
X3.68Y-2.87
X3.6933Y-4.3692
X3.7Y-4.03
X3.726Y-4.3909
X3.75Y-4.97
X3.7594Y-4.413
X3.77Y-3.04
X3.81Y-2.19
X3.82Y-1.74
X3.8839Y-2.5531
X3.9173Y-2.5531
X3.9291Y-3.5207
X3.937Y-3.3945
X4.011Y-3.7654
X4.0276Y-2.5965
X4.0276Y-2.6791
X4.04Y-4.39
X4.0421Y-3.4402
X4.0432Y-3.8586
X4.063Y-2.6791
X4.1Y-4.96
X4.1193Y-2.3307
X4.12Y-1.94
X4.1449Y-2.3496
X4.15Y-3.62
X4.1504Y-2.3185
X4.1613Y-3.7902
X4.1781Y-4.3563
X4.1854Y-3.4191
X4.1854Y-3.4491
X4.1854Y-3.4791
X4.1854Y-3.5091
X4.1919Y-3.8149
X4.2154Y-3.4191
X4.2154Y-3.4491
X4.2154Y-3.4791
X4.2154Y-3.5091
X4.22Y-2.78
X4.22Y-2.81
X4.22Y-2.84
X4.2214Y-3.8411
X4.2454Y-3.4191
X4.2454Y-3.4491
X4.2454Y-3.4791
X4.2454Y-3.5091
X4.248Y-3.0827
X4.25Y-2.78
X4.25Y-2.81
X4.25Y-2.84
X4.2544Y-3.8625
X4.2754Y-3.4191
X4.2754Y-3.4491
X4.2754Y-3.4791
X4.2754Y-3.5091
X4.28Y-2.78
X4.28Y-2.81
X4.28Y-2.84
X4.2843Y-3.8882
X4.3054Y-3.4191
X4.3054Y-3.4491
X4.3054Y-3.4791
X4.3054Y-3.5091
X4.31Y-1.83
X4.3402Y-4.376
X4.4028Y-4.1372
X4.42Y-5.42
X4.47Y-3.32
X4.47Y-4.97
X4.48Y-2.99
X4.52Y-4.19
X4.55Y-3.97
X4.5642Y-4.1043
X4.5678Y-4.3022
X4.58Y-1.92
X4.63Y-2.23
X4.66Y-3.95
X4.7004Y-3.6441
X4.7029Y-4.475
X4.7311Y-4.4465
X4.74Y-4.32
X4.7483Y-3.8453
X4.75Y-2.41
X4.77Y-3.0
X4.7701Y-4.126
X4.7886Y-2.0913
X4.7902Y-4.6083
X4.8042Y-4.3844
X4.8176Y-3.896
X4.8199Y-4.1817
X4.8273Y-4.1075
X4.8339Y-4.2587
X4.835Y-4.3559
X4.8378Y-3.7862
X4.8498Y-3.09
X4.8583Y-3.9382
X4.86Y-4.96
X4.8646Y-3.8996
X4.8668Y-4.1239
X4.87Y-2.68
X4.8892Y-3.0895
X4.9028Y-3.7134
X4.9182Y-4.0052
X4.9308Y-3.741
X4.9335Y-3.8445
X4.9392Y-3.9561
X4.9467Y-3.6739
X4.95Y-3.9176
X4.9752Y-3.7028
X4.9924Y-3.9743
X5.0043Y-3.7362
X5.0287Y-4.1492
X5.0532Y-3.0368
X5.0551Y-4.2254
X5.0618Y-3.7941
X5.08Y-1.99
X5.0933Y-2.6815
X5.1063Y-3.9823
X5.13Y-5.3
X5.1329Y-3.0271
X5.168Y-3.9129
X5.1728Y-3.4854
X5.2Y-3.89
X5.21Y-3.0685
X5.2302Y-4.0805
X5.2343Y-1.8858
X5.2485Y-3.6156
X5.25Y-5.05
X5.2557Y-3.5166
X5.2704Y-3.9693
X5.28Y-3.26
X5.2874Y-3.7047
X5.29Y-4.8
X5.302Y-3.187
X5.32Y-3.8925
X5.34Y-2.32
X5.3846Y-4.2193
X5.41Y-3.13
X5.437Y-4.2933
X5.4488Y-4.4961
X5.45Y-3.46
X5.4528Y-3.1835
X5.47Y-2.65
X5.47Y-5.31
X5.4705Y-1.8819
X5.498Y-4.3366
X5.5287Y-4.0208
X5.5315Y-4.4685
X5.55Y-3.59
X5.5517Y-4.0528
X5.561Y-4.3386
X5.5622Y-4.0907
X5.5637Y-4.1301
X5.5708Y-4.1688
X5.5723Y-3.3
X5.5819Y-4.2862
X5.59Y-1.82
X5.59Y-2.37
X5.5907Y-4.2028
X5.5945Y-4.2421
X5.6102Y-4.3917
X5.612Y-4.507
X5.6201Y-4.4685
X5.6535Y-5.0827
X5.68Y-2.1
X5.6929Y-3.4945
X5.6939Y-4.9429
X5.7116Y-4.9035
X5.7293Y-4.8622
X5.747Y-4.8209
X5.7648Y-4.7776
X5.7825Y-4.7323
X5.83Y-2.29
X5.85Y-3.31
X5.85Y-3.35
X5.8858Y-5.3071
X5.89Y-1.93
X5.89Y-3.31
X5.89Y-3.35
X5.9094Y-5.1102
X5.9154Y-5.2638
X5.93Y-2.59
X5.93Y-3.31
X5.93Y-3.35
X5.9311Y-4.2559
X5.96Y-4.79
X5.96Y-5.41
X5.98Y-4.97
X5.9862Y-4.3689
X6.02Y-3.6
X6.04Y-2.975
X6.07Y-4.07
X6.11Y-3.81
X6.1268Y-3.3039
X6.14Y-1.7
X6.14Y-2.1
X6.2Y-3.53
X6.21Y-4.29
X6.2291Y-2.4417
X6.2352Y-5.4724
X6.2531Y-2.3287
X6.2677Y-4.565
X6.3Y-1.69
X6.3Y-2.21
X6.3228Y-4.5748
X6.35Y-3.08
X6.35Y-3.12
X6.35Y-3.16
X6.35Y-3.2
X6.35Y-3.24
X6.38Y-2.63
X6.39Y-3.08
X6.39Y-3.12
X6.39Y-3.16
X6.39Y-3.2
X6.39Y-3.24
X6.3972Y-2.5079
X6.4244Y-2.4618
X6.4374Y-2.4921
X6.4622Y-2.5185
X6.47Y-5.43
X6.472Y-2.4795
X6.48Y-2.74
X6.48Y-3.295
X6.49Y-5.15
X6.54Y-2.23
X6.55Y-1.73
X6.55Y-1.97
X6.55Y-4.05
X6.55Y-4.32
X6.5512Y-3.5654
X6.5571Y-2.389
X6.57Y-3.39
X6.6Y-2.08
X6.63Y-3.08
X6.66Y-4.84
X6.69Y-5.25
X6.7Y-3.2
X6.7Y-3.29
X6.72Y-2.62
X6.72Y-4.27
X6.73Y-3.17
X6.74Y-3.33
X6.76Y-3.22
X6.7665Y-3.1059
X6.77Y-2.82
X6.79Y-2.25
X6.79Y-4.99
X6.81Y-3.67
X6.86Y-1.98
X6.8622Y-3.0055
X6.89Y-5.48
X6.9Y-3.46
X6.9016Y-2.4965
X6.91Y-3.6
X6.92Y-3.84
X6.93Y-1.73
X6.94Y-5.31
X6.96Y-1.87
X6.96Y-4.82
X6.9898Y-4.0638
X6.9969Y-2.8579
X7.0Y-2.22
X7.03Y-3.12
X7.04Y-3.4
X7.09Y-1.93
X7.1Y-3.66
X7.1Y-5.24
X7.11Y-2.45
X7.12Y-2.73
X7.1394Y-3.7201
T2
X5.1654Y-3.2106
X5.1654Y-3.2606
X5.1654Y-3.3106
X5.1654Y-3.3606
X5.1654Y-3.4106
X5.2154Y-3.2106
X5.2154Y-3.2606
X5.2154Y-3.3106
X5.2154Y-3.3606
X5.2154Y-3.4106
T3
X5.8228Y-3.4547
X5.8228Y-3.5547
X5.8228Y-3.6547
X5.8228Y-3.7547
X5.8228Y-3.8547
X5.8228Y-3.9547
X5.8228Y-4.0547
X5.8228Y-4.1547
X5.8228Y-4.2547
X5.8228Y-4.3547
X5.8228Y-4.4547
X5.8228Y-4.5547
X6.4228Y-3.4547
X6.4228Y-3.5547
X6.4228Y-3.6547
X6.4228Y-3.7547
X6.4228Y-3.8547
X6.4228Y-3.9547
X6.4228Y-4.0547
X6.4228Y-4.1547
X6.4228Y-4.2547
X6.4228Y-4.3547
X6.4228Y-4.4547
X6.4228Y-4.5547
X6.7648Y-3.7923
X6.7648Y-3.8923
X6.7648Y-3.9923
X6.7648Y-4.0923
X7.0648Y-3.7923
X7.0648Y-3.8923
X7.0648Y-3.9923
X7.0648Y-4.0923
X5.822Y-4.6937
X5.822Y-4.7937
X5.822Y-4.8937
X5.822Y-4.9937
X5.822Y-5.0937
X5.822Y-5.1937
X5.822Y-5.2937
X5.822Y-5.3937
X6.122Y-4.6937
X6.122Y-4.7937
X6.122Y-4.8937
X6.122Y-4.9937
X6.122Y-5.0937
X6.122Y-5.1937
X6.122Y-5.2937
X6.122Y-5.3937
X5.0969Y-1.7537
X5.1988Y-1.7537
X5.2988Y-1.7537
X5.3988Y-1.7537
T4
X6.63Y-4.603
X6.73Y-4.703
X6.83Y-4.603
T5
X4.0Y-2.1713
X4.0Y-2.25
X4.0984Y-2.1713
X4.0984Y-2.25
T6
X3.9896Y-4.615
X3.9896Y-4.7921
X4.2455Y-4.615
X4.2455Y-4.7921
X6.8935Y-2.5831
X6.8935Y-2.6816
X6.8935Y-2.78
X6.9919Y-2.5831
X6.9919Y-2.6816
X6.9919Y-2.78
X3.9896Y-5.165
X3.9896Y-5.3421
X4.2455Y-5.165
X4.2455Y-5.3421
X4.9374Y-4.4205
X4.9374Y-4.5976
X5.1933Y-4.4205
X5.1933Y-4.5976
X3.9896Y-4.89
X3.9896Y-5.0671
X4.2455Y-4.89
X4.2455Y-5.0671
X4.3396Y-4.89
X4.3396Y-5.0671
X4.5955Y-4.89
X4.5955Y-5.0671
X3.6396Y-4.89
X3.6396Y-5.0671
X3.8955Y-4.89
X3.8955Y-5.0671
T7
X3.813Y-2.0587
X4.2854Y-2.0587
T3
G00X6.028Y-1.9717
M15
G01X6.028Y-1.9913
M16
G05
G00X6.1264Y-1.9717
M15
G01X6.1264Y-1.9913
M16
G05
G00X6.215Y-1.7846
M15
G01X6.2346Y-1.7846
M16
G05
G00X6.3232Y-1.9717
M15
G01X6.3232Y-1.9913
M16
G05
G00X6.4217Y-1.9717
M15
G01X6.4217Y-1.9913
M16
G05
T0
M30
